<svg width="260" height="26" viewBox="0 0 260 26" fill="none" xmlns="http://www.w3.org/2000/svg">
<path d="M1.184 20.5C0.904 20.5 0.736 20.332 0.736 20.052V1.348C0.736 1.068 0.904 0.899999 1.184 0.899999H7.764C11.6 0.899999 13.7 2.888 13.7 5.94C13.7 7.872 12.748 9.356 10.816 10.392V10.448C13.084 11.344 14.344 13.08 14.344 15.264C14.344 18.596 12.3 20.5 8.044 20.5H1.184ZM7.988 18.568C11.068 18.568 11.824 17.868 11.824 15.04C11.824 12.24 11.068 11.54 7.988 11.54H3.116V18.568H7.988ZM3.116 9.608H7.596C10.48 9.608 11.208 8.936 11.208 6.22C11.208 3.504 10.48 2.832 7.596 2.832H3.116V9.608ZM21.0649 20.64C18.5729 20.64 16.3889 19.072 16.3889 16.468C16.3889 13.724 18.6569 12.24 21.9889 12.24H24.8729C25.4889 12.24 25.6849 12.044 25.6849 11.428V11.232C25.6849 8.348 24.9849 7.956 22.5769 7.956C20.3089 7.956 19.4129 8.544 19.0769 10.364C19.0209 10.644 18.8529 10.784 18.6009 10.784H17.2849C16.9769 10.784 16.8089 10.588 16.8929 10.28C17.4809 7.9 19.7209 6.164 22.5769 6.164C25.9369 6.164 28.0369 8.292 28.0369 11.568V20.052C28.0369 20.332 27.8689 20.5 27.5889 20.5H26.7769C26.5249 20.5 26.3289 20.36 26.2729 20.108L25.7689 18.176H25.7129C24.7049 19.772 23.0249 20.64 21.0649 20.64ZM21.5409 18.876C24.3129 18.876 25.6849 17.504 25.6849 14.704V13.892H21.8209C19.1609 13.892 18.7689 14.396 18.7689 16.412C18.7689 18.288 19.2449 18.876 21.5409 18.876ZM31.4236 20.5C31.1436 20.5 30.9756 20.332 30.9756 20.052V6.752C30.9756 6.472 31.1436 6.304 31.4236 6.304H32.2076C32.4596 6.304 32.6556 6.444 32.7396 6.668L33.2156 7.984H33.2996C34.2796 6.808 35.7916 6.164 37.5836 6.164C40.7196 6.164 42.4276 8.404 42.4276 12.464V20.052C42.4276 20.332 42.2596 20.5 41.9796 20.5H40.5516C40.2716 20.5 40.1036 20.332 40.1036 20.052V10.924C40.1036 8.544 39.4316 7.956 36.8556 7.956C33.9436 7.956 33.2996 8.488 33.2996 10.924V20.052C33.2996 20.332 33.1316 20.5 32.8516 20.5H31.4236ZM50.9857 20.64C47.0657 20.64 44.4617 17.728 44.4617 13.388C44.4617 9.104 47.0657 6.164 50.9857 6.164C53.9257 6.164 56.1937 7.956 56.7817 10.448C56.8377 10.728 56.6697 10.924 56.3617 10.924H54.9617C54.7097 10.924 54.5137 10.784 54.4857 10.504C54.1217 8.572 53.3097 7.956 50.9857 7.956C47.7377 7.956 46.9257 9.16 46.9257 13.388C46.9257 17.644 47.7657 18.848 50.9857 18.848C53.3097 18.848 54.1497 18.26 54.5697 16.328C54.6257 16.048 54.8217 15.908 55.0737 15.908H56.4737C56.7817 15.908 56.9497 16.076 56.8937 16.356C56.2497 18.848 53.9537 20.64 50.9857 20.64ZM63.4477 20.64C60.9557 20.64 58.7717 19.072 58.7717 16.468C58.7717 13.724 61.0397 12.24 64.3717 12.24H67.2557C67.8717 12.24 68.0677 12.044 68.0677 11.428V11.232C68.0677 8.348 67.3677 7.956 64.9597 7.956C62.6917 7.956 61.7957 8.544 61.4597 10.364C61.4037 10.644 61.2357 10.784 60.9837 10.784H59.6677C59.3597 10.784 59.1917 10.588 59.2757 10.28C59.8637 7.9 62.1037 6.164 64.9597 6.164C68.3197 6.164 70.4197 8.292 70.4197 11.568V20.052C70.4197 20.332 70.2517 20.5 69.9717 20.5H69.1597C68.9077 20.5 68.7117 20.36 68.6557 20.108L68.1517 18.176H68.0957C67.0877 19.772 65.4077 20.64 63.4477 20.64ZM63.9237 18.876C66.6957 18.876 68.0677 17.504 68.0677 14.704V13.892H64.2037C61.5437 13.892 61.1517 14.396 61.1517 16.412C61.1517 18.288 61.6277 18.876 63.9237 18.876ZM73.9184 20.5C73.6384 20.5 73.4704 20.332 73.4704 20.052V1.348C73.4704 1.068 73.6384 0.899999 73.9184 0.899999H75.7944C76.0184 0.899999 76.2144 0.983999 76.3264 1.208L85.5664 17H85.6504V1.348C85.6504 1.068 85.8184 0.899999 86.0984 0.899999H87.4704C87.7504 0.899999 87.9184 1.068 87.9184 1.348V20.052C87.9184 20.332 87.7504 20.5 87.4704 20.5H85.5944C85.3704 20.5 85.1744 20.416 85.0624 20.192L75.8224 4.372H75.7384V20.052C75.7384 20.332 75.5704 20.5 75.2904 20.5H73.9184ZM96.8685 20.64C92.9485 20.64 90.3445 17.728 90.3445 13.416C90.3445 9.076 92.9485 6.164 96.8685 6.164C100.901 6.164 103.337 8.908 103.337 13.416V13.64C103.337 13.92 103.169 14.088 102.889 14.088H92.8085C92.9205 17.784 93.8445 18.848 96.8685 18.848C99.2765 18.848 100.285 18.316 100.789 16.664C100.873 16.384 101.041 16.272 101.293 16.272H102.609C102.917 16.272 103.113 16.44 103.001 16.72C102.105 19.044 99.7805 20.64 96.8685 20.64ZM92.8085 12.52H100.929C100.873 9.076 99.8925 7.956 96.8685 7.956C93.8445 7.956 92.9485 8.992 92.8085 12.52ZM111.476 20.64C108.816 20.64 107.248 18.652 107.248 15.992V8.04H105.008C104.728 8.04 104.56 7.872 104.56 7.592V6.752C104.56 6.472 104.728 6.304 105.008 6.304H107.248V3.028C107.248 2.776 107.388 2.608 107.64 2.552L109.068 2.216C109.376 2.16 109.572 2.3 109.572 2.608V6.304H112.848C113.128 6.304 113.296 6.472 113.296 6.752V7.592C113.296 7.872 113.128 8.04 112.848 8.04H109.572V17.056C109.572 18.652 109.796 18.848 111.616 18.848H112.848C113.128 18.848 113.296 19.016 113.296 19.296V19.968C113.296 20.22 113.212 20.416 113.016 20.472C112.596 20.584 112.008 20.64 111.476 20.64ZM122.508 20.5C122.228 20.5 122.06 20.332 122.06 20.052V1.348C122.06 1.068 122.228 0.899999 122.508 0.899999H133.428C133.708 0.899999 133.876 1.068 133.876 1.348V2.412C133.876 2.692 133.708 2.86 133.428 2.86H124.44V9.636H132.896C133.176 9.636 133.344 9.804 133.344 10.084V11.148C133.344 11.428 133.176 11.596 132.896 11.596H124.44V18.54H133.652C133.932 18.54 134.1 18.708 134.1 18.988V20.052C134.1 20.332 133.932 20.5 133.652 20.5H122.508ZM137.381 20.5C137.101 20.5 136.933 20.332 136.933 20.052V6.752C136.933 6.472 137.101 6.304 137.381 6.304H138.165C138.417 6.304 138.613 6.444 138.697 6.668L139.173 7.984H139.257C140.209 6.808 141.665 6.164 143.401 6.164C145.025 6.164 146.229 6.668 147.349 7.984H147.433C148.581 6.78 150.233 6.164 151.829 6.164C155.441 6.164 157.009 8.376 157.009 12.464V20.052C157.009 20.332 156.841 20.5 156.561 20.5H155.133C154.853 20.5 154.685 20.332 154.685 20.052V10.924C154.685 8.544 154.041 7.956 151.549 7.956C148.777 7.956 148.133 8.488 148.133 10.924V20.052C148.133 20.332 147.965 20.5 147.685 20.5H146.257C145.977 20.5 145.809 20.332 145.809 20.052V10.924C145.809 8.544 145.165 7.956 142.673 7.956C139.873 7.956 139.257 8.488 139.257 10.924V20.052C139.257 20.332 139.089 20.5 138.809 20.5H137.381ZM166.927 6.164C170.399 6.164 172.863 9.132 172.863 13.416C172.863 17.672 170.399 20.64 166.927 20.64C165.107 20.64 163.371 19.688 162.419 18.232H162.307V25.372C162.307 25.652 162.139 25.82 161.859 25.82H160.431C160.151 25.82 159.983 25.652 159.983 25.372V6.752C159.983 6.472 160.151 6.304 160.431 6.304H161.187C161.439 6.304 161.635 6.444 161.691 6.696L162.195 8.516H162.307C163.175 7.116 164.967 6.164 166.927 6.164ZM166.339 7.956C163.119 7.956 162.195 9.188 162.195 13.416C162.195 17.644 163.119 18.848 166.339 18.848C169.531 18.848 170.399 17.644 170.399 13.416C170.399 9.188 169.503 7.956 166.339 7.956ZM175.607 20.5C175.327 20.5 175.159 20.332 175.159 20.052V6.752C175.159 6.472 175.327 6.304 175.607 6.304H176.391C176.643 6.304 176.839 6.444 176.895 6.696L177.399 8.488H177.483C178.127 7.256 179.639 6.276 181.991 6.164C182.299 6.164 182.467 6.332 182.467 6.612V7.9C182.467 8.18 182.299 8.348 182.019 8.348H181.039C178.071 8.348 177.483 9.3 177.483 11.932V20.052C177.483 20.332 177.315 20.5 177.035 20.5H175.607ZM190.193 20.64C186.273 20.64 183.669 17.728 183.669 13.416C183.669 9.076 186.273 6.164 190.193 6.164C194.225 6.164 196.661 8.908 196.661 13.416V13.64C196.661 13.92 196.493 14.088 196.213 14.088H186.133C186.245 17.784 187.169 18.848 190.193 18.848C192.601 18.848 193.609 18.316 194.113 16.664C194.197 16.384 194.365 16.272 194.617 16.272H195.933C196.241 16.272 196.437 16.44 196.325 16.72C195.429 19.044 193.105 20.64 190.193 20.64ZM186.133 12.52H194.253C194.197 9.076 193.217 7.956 190.193 7.956C187.169 7.956 186.273 8.992 186.133 12.52ZM203.652 20.64C200.74 20.64 198.724 19.128 198.332 16.664C198.276 16.356 198.472 16.188 198.752 16.188H200.012C200.292 16.188 200.432 16.328 200.488 16.608C200.74 18.484 201.412 18.904 203.624 18.904C205.78 18.904 206.368 18.428 206.368 16.608C206.368 15.18 205.948 14.816 203.876 14.424L202.588 14.172C199.76 13.612 198.612 12.436 198.612 10.14C198.612 7.872 200.628 6.164 203.372 6.164C205.976 6.164 207.796 7.592 208.216 9.804C208.272 10.112 208.104 10.28 207.796 10.28H206.536C206.256 10.28 206.116 10.14 206.06 9.832C205.864 8.124 205.416 7.9 203.4 7.9C201.272 7.9 200.852 8.264 200.852 10.028C200.852 11.54 201.188 11.848 203.344 12.268L204.688 12.548C207.6 13.136 208.608 14.172 208.608 16.496C208.608 19.044 206.676 20.64 203.652 20.64ZM215.288 20.64C212.796 20.64 210.612 19.072 210.612 16.468C210.612 13.724 212.88 12.24 216.212 12.24H219.096C219.712 12.24 219.908 12.044 219.908 11.428V11.232C219.908 8.348 219.208 7.956 216.8 7.956C214.532 7.956 213.636 8.544 213.3 10.364C213.244 10.644 213.076 10.784 212.824 10.784H211.508C211.2 10.784 211.032 10.588 211.116 10.28C211.704 7.9 213.944 6.164 216.8 6.164C220.16 6.164 222.26 8.292 222.26 11.568V20.052C222.26 20.332 222.092 20.5 221.812 20.5H221C220.748 20.5 220.552 20.36 220.496 20.108L219.992 18.176H219.936C218.928 19.772 217.248 20.64 215.288 20.64ZM215.764 18.876C218.536 18.876 219.908 17.504 219.908 14.704V13.892H216.044C213.384 13.892 212.992 14.396 212.992 16.412C212.992 18.288 213.468 18.876 215.764 18.876ZM225.646 20.5C225.366 20.5 225.198 20.332 225.198 20.052V6.752C225.198 6.472 225.366 6.304 225.646 6.304H226.43C226.682 6.304 226.878 6.444 226.934 6.696L227.438 8.488H227.522C228.166 7.256 229.678 6.276 232.03 6.164C232.338 6.164 232.506 6.332 232.506 6.612V7.9C232.506 8.18 232.338 8.348 232.058 8.348H231.078C228.11 8.348 227.522 9.3 227.522 11.932V20.052C227.522 20.332 227.354 20.5 227.074 20.5H225.646ZM235.271 20.5C234.991 20.5 234.823 20.332 234.823 20.052V6.752C234.823 6.472 234.991 6.304 235.271 6.304H236.699C236.979 6.304 237.147 6.472 237.147 6.752V20.052C237.147 20.332 236.979 20.5 236.699 20.5H235.271ZM235.971 3.476C234.739 3.476 234.459 3.224 234.459 2.104C234.459 0.956 234.739 0.704 235.971 0.704C237.231 0.704 237.483 0.956 237.483 2.104C237.483 3.224 237.231 3.476 235.971 3.476ZM244.545 20.64C242.053 20.64 239.869 19.072 239.869 16.468C239.869 13.724 242.137 12.24 245.469 12.24H248.353C248.969 12.24 249.165 12.044 249.165 11.428V11.232C249.165 8.348 248.465 7.956 246.057 7.956C243.789 7.956 242.893 8.544 242.557 10.364C242.501 10.644 242.333 10.784 242.081 10.784H240.765C240.457 10.784 240.289 10.588 240.373 10.28C240.961 7.9 243.201 6.164 246.057 6.164C249.417 6.164 251.517 8.292 251.517 11.568V20.052C251.517 20.332 251.349 20.5 251.069 20.5H250.257C250.005 20.5 249.809 20.36 249.753 20.108L249.249 18.176H249.193C248.185 19.772 246.505 20.64 244.545 20.64ZM245.021 18.876C247.793 18.876 249.165 17.504 249.165 14.704V13.892H245.301C242.641 13.892 242.249 14.396 242.249 16.412C242.249 18.288 242.725 18.876 245.021 18.876ZM258.684 20.64C256.024 20.64 254.456 18.652 254.456 15.992V1.348C254.456 1.068 254.624 0.899999 254.904 0.899999H256.332C256.612 0.899999 256.78 1.068 256.78 1.348V17.056C256.78 18.652 257.004 18.848 258.796 18.848H259.328C259.608 18.848 259.776 19.016 259.776 19.296V20.108C259.776 20.36 259.692 20.556 259.524 20.584C259.3 20.612 259.02 20.64 258.684 20.64Z" fill="#001E22"/>
</svg>